<svg width="18" height="18" viewBox="0 0 18 18" fill="none" xmlns="http://www.w3.org/2000/svg">
<path d="M9.75 9.13125L11.4375 10.8188C11.575 10.9563 11.6437 11.1283 11.6437 11.3348C11.6437 11.5407 11.575 11.7188 11.4375 11.8687C11.2875 12.0188 11.1095 12.0938 10.9035 12.0938C10.697 12.0938 10.5188 12.0188 10.3687 11.8687L8.775 10.275C8.6 10.1 8.46875 9.90625 8.38125 9.69375C8.29375 9.48125 8.25 9.25 8.25 9V6.75C8.25 6.5375 8.322 6.35925 8.466 6.21525C8.6095 6.07175 8.7875 6 9 6C9.2125 6 9.39075 6.07175 9.53475 6.21525C9.67825 6.35925 9.75 6.5375 9.75 6.75V9.13125ZM9 3C9.2125 3 9.39075 3.07175 9.53475 3.21525C9.67825 3.35925 9.75 3.5375 9.75 3.75C9.75 3.9625 9.67825 4.14075 9.53475 4.28475C9.39075 4.42825 9.2125 4.5 9 4.5C8.7875 4.5 8.6095 4.42825 8.466 4.28475C8.322 4.14075 8.25 3.9625 8.25 3.75C8.25 3.5375 8.322 3.35925 8.466 3.21525C8.6095 3.07175 8.7875 3 9 3ZM15 9C15 9.2125 14.928 9.3905 14.784 9.534C14.6405 9.678 14.4625 9.75 14.25 9.75C14.0375 9.75 13.8595 9.678 13.716 9.534C13.572 9.3905 13.5 9.2125 13.5 9C13.5 8.7875 13.572 8.60925 13.716 8.46525C13.8595 8.32175 14.0375 8.25 14.25 8.25C14.4625 8.25 14.6405 8.32175 14.784 8.46525C14.928 8.60925 15 8.7875 15 9ZM9 13.5C9.2125 13.5 9.39075 13.572 9.53475 13.716C9.67825 13.8595 9.75 14.0375 9.75 14.25C9.75 14.4625 9.67825 14.6405 9.53475 14.784C9.39075 14.928 9.2125 15 9 15C8.7875 15 8.6095 14.928 8.466 14.784C8.322 14.6405 8.25 14.4625 8.25 14.25C8.25 14.0375 8.322 13.8595 8.466 13.716C8.6095 13.572 8.7875 13.5 9 13.5ZM4.5 9C4.5 9.2125 4.42825 9.3905 4.28475 9.534C4.14075 9.678 3.9625 9.75 3.75 9.75C3.5375 9.75 3.35925 9.678 3.21525 9.534C3.07175 9.3905 3 9.2125 3 9C3 8.7875 3.07175 8.60925 3.21525 8.46525C3.35925 8.32175 3.5375 8.25 3.75 8.25C3.9625 8.25 4.14075 8.32175 4.28475 8.46525C4.42825 8.60925 4.5 8.7875 4.5 9ZM9 16.5C7.9625 16.5 6.9875 16.303 6.075 15.909C5.1625 15.5155 4.36875 14.9813 3.69375 14.3063C3.01875 13.6313 2.4845 12.8375 2.091 11.925C1.697 11.0125 1.5 10.0375 1.5 9C1.5 7.9625 1.697 6.9875 2.091 6.075C2.4845 5.1625 3.01875 4.36875 3.69375 3.69375C4.36875 3.01875 5.1625 2.48425 6.075 2.09025C6.9875 1.69675 7.9625 1.5 9 1.5C10.0375 1.5 11.0125 1.69675 11.925 2.09025C12.8375 2.48425 13.6313 3.01875 14.3063 3.69375C14.9813 4.36875 15.5155 5.1625 15.909 6.075C16.303 6.9875 16.5 7.9625 16.5 9C16.5 10.0375 16.303 11.0125 15.909 11.925C15.5155 12.8375 14.9813 13.6313 14.3063 14.3063C13.6313 14.9813 12.8375 15.5155 11.925 15.909C11.0125 16.303 10.0375 16.5 9 16.5ZM9 15C10.675 15 12.0937 14.4187 13.2562 13.2562C14.4187 12.0937 15 10.675 15 9C15 7.325 14.4187 5.90625 13.2562 4.74375C12.0937 3.58125 10.675 3 9 3C7.325 3 5.90625 3.58125 4.74375 4.74375C3.58125 5.90625 3 7.325 3 9C3 10.675 3.58125 12.0937 4.74375 13.2562C5.90625 14.4187 7.325 15 9 15Z" fill="black"/>
</svg>
