<svg width="29" height="28" viewBox="0 0 29 28" fill="none" xmlns="http://www.w3.org/2000/svg">
<path d="M17.5 20.375V23.625C17.5 24.487 17.2147 25.3136 16.7067 25.9231C16.1988 26.5326 15.51 26.875 14.7917 26.875H3.95833C3.24004 26.875 2.55116 26.5326 2.04325 25.9231C1.53534 25.3136 1.25 24.487 1.25 23.625V4.125C1.25 3.26305 1.53534 2.4364 2.04325 1.8269C2.55116 1.21741 3.24004 0.875 3.95833 0.875H14.25C15.7457 0.875 17.5 2.33019 17.5 4.125V7.375M21.8333 20.375L27.25 13.875L21.8333 7.375M8.83333 13.875H26.1667" stroke="white" stroke-width="1.625" stroke-linecap="round" stroke-linejoin="round"/>
</svg>
