<svg width="28" height="28" viewBox="0 0 28 28" fill="none" xmlns="http://www.w3.org/2000/svg">
<path d="M10.75 7.5V4.25C10.75 3.38805 11.0353 2.5614 11.5433 1.9519C12.0512 1.34241 12.74 1 13.4583 1H24.2917C25.01 1 25.6988 1.34241 26.2067 1.9519C26.7147 2.5614 27 3.38805 27 4.25L27 23.75C27 24.612 26.7147 25.4386 26.2067 26.0481C25.6988 26.6576 25.01 27 24.2917 27H14C12.5043 27 10.75 25.5448 10.75 23.75V20.5M15 7.5L20.5 14L15 20M19.4167 14L2.08333 14" stroke="white" stroke-width="1.625" stroke-linecap="round" stroke-linejoin="round"/>
</svg>
